# xmcd
#
# Track frame offsets: 
#        150
#        23080
#        52037
#        74160
#        92787
#        115197
#        142770
#        165705
#        179257
#        195005
#
# Disc length: 3224 seconds
#
# Revision: 2
# Processed by: cddbd v1.5.1PL0 Copyright (c) Steve Scherf et al.
# Submitted via: ExactAudioCopy v0.95a5
#
DISCID=820c960a
DTITLE=Tony Joe White - Live !
DYEAR=1986
DGENRE=Blues
TTITLE0=Roosevelt And Ira Lee
TTITLE1=Another Night In The Life Of A Swamp Fox
TTITLE2=A Rainy Night In Georgia
TTITLE3=Lustful Earl And The Married Woman
TTITLE4=Willie And Laura Mae Jones
TTITLE5=My Kind Of Woman
TTITLE6=Mississippi River
TTITLE7=Traveling Bone
TTITLE8=Back To The Country
TTITLE9=Polk Salad Annie
EXTD=
EXTT0=
EXTT1=
EXTT2=
EXTT3=
EXTT4=
EXTT5=
EXTT6=
EXTT7=
EXTT8=
EXTT9=
PLAYORDER=
